<svg height="512" viewBox="0 0 64 64" width="512" xmlns="http://www.w3.org/2000/svg"><g fill="#535a66"><path d="m40.49 24.51a1 1 0 0 1 -.71-.29 1 1 0 0 1 0-1.42l7-7a1 1 0 1 1 1.42 1.42l-7 7a1 1 0 0 1 -.71.29z"/><path d="m16.54 48.46a1 1 0 0 1 -.71-.29 1 1 0 0 1 0-1.42l7-7a1 1 0 0 1 1.42 1.42l-7 7a1 1 0 0 1 -.71.29z"/><path d="m23.51 24.51a1 1 0 0 1 -.71-.29l-7-7a1 1 0 1 1 1.42-1.42l7 7a1 1 0 0 1 0 1.42 1 1 0 0 1 -.71.29z"/><path d="m47.46 48.46a1 1 0 0 1 -.71-.29l-7-7a1 1 0 0 1 1.42-1.42l7 7a1 1 0 0 1 0 1.42 1 1 0 0 1 -.71.29z"/><path d="m20 33h-8a1 1 0 0 1 0-2h8a1 1 0 0 1 0 2z"/><path d="m32 21a1 1 0 0 1 -1-1v-8a1 1 0 0 1 2 0v8a1 1 0 0 1 -1 1z"/><path d="m52 33h-8a1 1 0 0 1 0-2h8a1 1 0 0 1 0 2z"/><path d="m32 53a1 1 0 0 1 -1-1v-8a1 1 0 0 1 2 0v8a1 1 0 0 1 -1 1z"/><circle cx="32" cy="32" r="12"/></g><path d="m32 20v24a12 12 0 0 0 0-24z" fill="#363f4c"/><path d="m32 45a13 13 0 1 1 13-13 13 13 0 0 1 -13 13zm0-24a11 11 0 1 0 11 11 11 11 0 0 0 -11-11z" fill="#363f4c"/><path d="m32 19v2a11 11 0 0 1 0 22v2a13 13 0 0 0 0-26z" fill="#1f2633"/><path d="m32 31.34a5 5 0 0 1 -3.54-1.46l-3.17-3.17a1 1 0 0 1 1.42-1.42l3.17 3.17a3.06 3.06 0 0 0 4.24 0l3.17-3.17a1 1 0 0 1 1.42 1.42l-3.17 3.17a5 5 0 0 1 -3.54 1.46z" fill="#ebebf2"/><path d="m38.71 25.29a1 1 0 0 0 -1.42 0l-3.17 3.17a3 3 0 0 1 -2.12.85v2a5 5 0 0 0 3.54-1.46l3.17-3.17a1 1 0 0 0 0-1.39z" fill="#d1d0ea"/><path d="m26 39a1 1 0 0 1 -.71-.29 1 1 0 0 1 0-1.42l3.17-3.17a5 5 0 0 1 7.08 0l3.17 3.17a1 1 0 0 1 -1.42 1.42l-3.17-3.17a3.06 3.06 0 0 0 -4.24 0l-3.17 3.17a1 1 0 0 1 -.71.29z" fill="#ebebf2"/><path d="m38.71 37.29-3.17-3.17a5 5 0 0 0 -3.54-1.46v2a3 3 0 0 1 2.12.85l3.17 3.17a1 1 0 0 0 1.42-1.42z" fill="#d1d0ea"/><circle cx="51" cy="13" fill="#57c988" r="6"/><path d="m51 7v12a6 6 0 0 0 0-12z" fill="#1b9387"/><circle cx="13" cy="13" fill="#57c988" r="6"/><path d="m13 7v12a6 6 0 0 0 0-12z" fill="#1b9387"/><circle cx="13" cy="51" fill="#57c988" r="6"/><path d="m13 45v12a6 6 0 0 0 0-12z" fill="#1b9387"/><circle cx="51" cy="51" fill="#57c988" r="6"/><path d="m51 45v12a6 6 0 0 0 0-12z" fill="#1b9387"/></svg>